<svg xmlns="http://www.w3.org/2000/svg" width="19px" height="19px" viewBox="0 0 19 19"><path fill="#231F20" fill-rule="evenodd" d="M33.814121,21.4623022 L33.8141209,21.4623022 C35.7631855,21.4623022 37.343213,23.0423349 37.343213,24.9914059 L37.343213,33.8141651 L37.343213,33.8141651 C37.343213,35.7632361 35.7631855,37.3432688 33.8141209,37.3432688 L24.9913906,37.3432688 L24.9913904,37.3432688 C23.0423258,37.3432687 21.4622983,35.7632361 21.4622983,33.8141651 C21.4622983,33.8141651 21.4622983,33.8141651 21.4622983,33.8141651 L21.4622983,24.9914059 L21.4622983,24.9914064 C21.462298,23.0423354 23.0423258,21.4623028 24.9913904,21.4623028 L33.8141207,21.4623028 L33.814121,21.4623022 Z M33.8141207,20.1388889 L24.9913904,20.1388889 L24.9913906,20.1388889 C22.3124347,20.1413209 20.1413151,22.3124418 20.1388889,24.9914064 L20.1388889,33.8141656 L20.1388889,33.8141932 C20.1413362,36.4931579 22.3124656,38.6642845 24.9914347,38.6666667 L33.814165,38.6666667 L33.814165,38.6666667 C36.4931209,38.6642346 38.6642404,36.4931138 38.6666667,33.8141491 L38.6666667,24.9913899 L38.6666666,24.9913625 C38.6642194,22.3123979 36.4930944,20.1412712 33.8141209,20.1388891 L33.8141209,20.1388891 L33.8141207,20.1388889 Z M29.4027556,25.4325444 L29.4027554,25.4325444 C31.5954509,25.4325443 33.372984,27.2100833 33.372984,29.402786 C33.3729841,31.5954887 31.5954509,33.3730277 29.4027554,33.3730277 C27.2100599,33.3730278 25.4325267,31.5954887 25.4325267,29.402786 L25.4325267,29.4027866 C25.4325264,27.2100839 27.2100599,25.432545 29.4027554,25.432545 L29.4027556,25.4325444 Z M29.4027554,24.1091311 L29.4027552,24.1091311 C26.4791582,24.1091313 24.109117,26.4791801 24.109117,29.4027866 C24.1091171,32.3263932 26.4791582,34.6964422 29.4027552,34.6964422 C32.3263521,34.696442 34.6963933,32.3263932 34.6963933,29.4027866 L34.6963933,29.4027968 C34.6937237,26.4803019 32.3252537,24.1118322 29.4027552,24.1091413 L29.4027552,24.1091413 L29.4027554,24.1091311 Z M35.3580983,23.8885621 L35.3580983,23.8885621 C35.3580983,24.3758299 34.963091,24.7708381 34.4758253,24.7708381 C33.9885591,24.7708381 33.5935523,24.3758295 33.5935523,23.8885621 C33.5935523,23.4012944 33.9885596,23.0062862 34.4758253,23.0062862 L34.4758253,23.0062862 C34.9630915,23.0062856 35.3580984,23.4012935 35.3580984,23.8885621 C35.3580984,23.8885626 35.3580984,23.888563 35.3580984,23.8885634 L35.3580983,23.8885621 Z" transform="translate(-20 -20)"></path></svg>
