<svg xmlns="http://www.w3.org/2000/svg" viewBox="0 0 199 199"><g fill="none" fill-rule="evenodd"><path d="M0 199h199V0H0z"/><path fill="#FFF" d="M46.5 39.89h-.176l-3.518 14.926h7.256L46.5 39.889zM50.678 34L60 67h-6.904l-1.627-6.565h-9.894L39.904 67H33l9.103-33h8.575zM97.59 48.327c4.118 0 4.752 0 5.792-.36 2.31-.81 2.49-2.611 2.49-4.412 0-2.296-.724-3.422-2.172-3.963-1.131-.405-2.037-.405-6.11-.405v9.14zm0 18.775h-7.196V34.055h10.726c5.386 0 12.22.72 12.22 9.59 0 4.187-1.675 7.383-6.336 8.779l7.24 14.678h-7.92l-6.29-13.507H97.59v13.507zm46.262-22.016c0-7.565 4.074-11.842 11.813-11.842 1.99 0 4.977.405 7.285 2.207 2.987 2.34 3.35 6.393 3.44 9.05h-7.286c-.046-1.622-.136-5.223-3.756-5.223-.905 0-2.037.36-2.761 1.035-1.177 1.08-1.222 2.702-1.222 3.602v12.562c0 1.8 0 5.267 4.027 5.267 2.987 0 3.893-2.431 3.893-5.988h7.331c-.046 2.386-.09 2.656-.316 4.052-.272 1.306-.725 3.692-3.486 5.899-2.353 1.89-5.792 2.205-7.24 2.205-3.847 0-6.517-.9-8.599-2.926-1.358-1.306-3.123-3.197-3.123-9.95v-9.95zm-96.917 60.96h-.181l-3.62 14.948H50.6l-3.666-14.947zm4.3-5.897l9.593 33.046h-7.104l-1.675-6.574H41.866l-1.72 6.574h-7.104l9.368-33.046h8.824zm47.056 27.149h2.082c2.941 0 5.928-.54 5.928-6.888 0-1.126.091-2.928.091-4.052 0-3.963-.09-6.71-1.222-8.331-1.403-2.025-2.987-2.025-6.879-2.025v21.296zm-7.422-27.149h8.056c8.1 0 10.952 1.53 12.852 4.277 1.449 2.116 1.992 4.413 1.992 11.84l-.046 5.628c0 3.737-.905 7.7-4.57 9.546-2.399 1.216-4.436 1.44-7.106 1.665-.95.09-5.702.09-11.178.09V100.15zm52.88 0h22.31v6.032h-15.07v7.024h10.364v6.034h-10.274v7.788h15.071v6.169h-22.401zm-105.31 62.592v1.451h-3.761v1.401h3.459v1.45h-3.459v2.701h-1.609v-7.003zm9.191-.1c2.062 0 3.721 1.602 3.721 3.603 0 1.999-1.659 3.6-3.72 3.6-2.062 0-3.72-1.601-3.72-3.6 0-2.001 1.658-3.603 3.72-3.603m0 5.702c1.156 0 2.111-.8 2.111-2.1s-.955-2.1-2.112-2.1c-1.156 0-2.111.8-2.111 2.1s.955 2.1 2.111 2.1m13.023-5.702c2.062 0 3.72 1.602 3.72 3.603 0 1.999-1.658 3.6-3.72 3.6-2.06 0-3.72-1.601-3.72-3.6 0-2.001 1.66-3.603 3.72-3.603m0 5.702c1.157 0 2.112-.8 2.112-2.1s-.955-2.1-2.112-2.1-2.111.8-2.111 2.1.954 2.1 2.111 2.1m9.574-5.602h2.765c2.413 0 3.771 1.4 3.771 3.552 0 2-1.358 3.45-3.72 3.45h-2.816v-7.002zm1.608 5.552h1.157c1.508 0 2.163-.849 2.163-2 0-1.3-.705-2.101-2.213-2.101h-1.107v4.101zm23.924-4.101h-2.413v5.552h-1.609v-5.552h-2.414v-1.451h6.436zm7.301 2.851v2.701h-1.61v-7.003h1.61v2.851h3.117v-2.851h1.609v7.003h-1.609v-2.701zm16.271-4.302v1.451h-3.833v1.25h3.531v1.452h-3.531v1.399h3.933v1.451h-5.54v-7.003zm8.175-.001h2.313l2.765 7.004h-1.76l-.542-1.45h-3.238l-.544 1.45h-1.76l2.766-7.003zm2.233 4.104l-1.076-2.863-1.077 2.863h2.153zm13.425-2.652h-2.413v5.552h-1.61v-5.552h-2.413v-1.451h6.436zm9.855 5.553c-.201-.402-.221-.75-.221-1.602 0-.7-.373-1.05-1.026-1.05h-1.308v2.652h-1.609v-7.003h3.52c1.508 0 2.363.889 2.363 2.051 0 .79-.553 1.55-1.358 1.85.553.15 1.036.65 1.077 1.451.03.59.1 1.11.371 1.49v.16h-1.81zm-.694-4.104c.603 0 .854-.348.854-.749 0-.4-.251-.699-.854-.699h-1.86v1.448h1.86zm13.797-2.9v1.451h-3.832v1.25h3.53v1.452h-3.53v1.399h3.933v1.451h-5.541v-7.003z"/></g></svg>